<mxfile host="app.diagrams.net" modified="2021-01-11T14:25:05.017Z" agent="5.0 (Macintosh; Intel Mac OS X 10_14_2) AppleWebKit/537.36 (KHTML, like Gecko) Chrome/87.0.4280.88 Safari/537.36" etag="OuR3HFfIWdpPZMyItQIr" version="14.1.2" type="github">
  <diagram id="Aal5Y67CQLRODoDGmTe_" name="Page-1">
    <mxGraphModel dx="655" dy="409" grid="1" gridSize="10" guides="1" tooltips="1" connect="1" arrows="1" fold="1" page="1" pageScale="1" pageWidth="850" pageHeight="1100" math="0" shadow="0">
      <root>
        <mxCell id="0" />
        <mxCell id="1" parent="0" />
        <mxCell id="7_2PxLmDTk1nebNTgZE4-55" value="" style="rounded=1;whiteSpace=wrap;html=1;" parent="1" vertex="1">
          <mxGeometry x="180" y="70" width="740" height="940" as="geometry" />
        </mxCell>
        <mxCell id="7_2PxLmDTk1nebNTgZE4-90" style="rounded=0;orthogonalLoop=1;jettySize=auto;html=1;exitX=1;exitY=0.3333333333333333;exitDx=0;exitDy=0;exitPerimeter=0;endArrow=none;endFill=0;" parent="1" source="7_2PxLmDTk1nebNTgZE4-56" target="7_2PxLmDTk1nebNTgZE4-57" edge="1">
          <mxGeometry relative="1" as="geometry" />
        </mxCell>
        <mxCell id="7_2PxLmDTk1nebNTgZE4-92" value="" style="edgeStyle=none;rounded=0;orthogonalLoop=1;jettySize=auto;html=1;endArrow=none;endFill=0;exitX=1;exitY=0.3333333333333333;exitDx=0;exitDy=0;exitPerimeter=0;entryX=0.017;entryY=0.6;entryDx=0;entryDy=0;entryPerimeter=0;" parent="1" source="7_2PxLmDTk1nebNTgZE4-56" target="7_2PxLmDTk1nebNTgZE4-63" edge="1">
          <mxGeometry relative="1" as="geometry" />
        </mxCell>
        <mxCell id="7_2PxLmDTk1nebNTgZE4-93" value="" style="edgeStyle=none;rounded=0;orthogonalLoop=1;jettySize=auto;html=1;endArrow=none;endFill=0;entryX=0.006;entryY=0.608;entryDx=0;entryDy=0;entryPerimeter=0;exitX=1;exitY=0.3333333333333333;exitDx=0;exitDy=0;exitPerimeter=0;" parent="1" source="7_2PxLmDTk1nebNTgZE4-56" target="7_2PxLmDTk1nebNTgZE4-59" edge="1">
          <mxGeometry relative="1" as="geometry">
            <mxPoint x="110" y="470" as="sourcePoint" />
          </mxGeometry>
        </mxCell>
        <mxCell id="7_2PxLmDTk1nebNTgZE4-94" value="" style="edgeStyle=none;rounded=0;orthogonalLoop=1;jettySize=auto;html=1;endArrow=none;endFill=0;exitX=1;exitY=0.3333333333333333;exitDx=0;exitDy=0;exitPerimeter=0;" parent="1" source="7_2PxLmDTk1nebNTgZE4-56" target="7_2PxLmDTk1nebNTgZE4-58" edge="1">
          <mxGeometry relative="1" as="geometry" />
        </mxCell>
        <mxCell id="7_2PxLmDTk1nebNTgZE4-56" value="Joueur" style="shape=umlActor;verticalLabelPosition=bottom;verticalAlign=top;html=1;outlineConnect=0;" parent="1" vertex="1">
          <mxGeometry x="70" y="430" width="30" height="60" as="geometry" />
        </mxCell>
        <mxCell id="7_2PxLmDTk1nebNTgZE4-57" value="Installer le jeu" style="ellipse;whiteSpace=wrap;html=1;" parent="1" vertex="1">
          <mxGeometry x="240" y="230" width="120" height="80" as="geometry" />
        </mxCell>
        <mxCell id="7_2PxLmDTk1nebNTgZE4-58" value="Installer son tour" style="ellipse;whiteSpace=wrap;html=1;" parent="1" vertex="1">
          <mxGeometry x="230" y="410" width="120" height="80" as="geometry" />
        </mxCell>
        <mxCell id="7_2PxLmDTk1nebNTgZE4-59" value="Jouer son tour" style="ellipse;whiteSpace=wrap;html=1;" parent="1" vertex="1">
          <mxGeometry x="240" y="600" width="120" height="80" as="geometry" />
        </mxCell>
        <mxCell id="7_2PxLmDTk1nebNTgZE4-60" value="Choisir le nombre de joueurs" style="ellipse;whiteSpace=wrap;html=1;" parent="1" vertex="1">
          <mxGeometry x="490" y="140" width="120" height="80" as="geometry" />
        </mxCell>
        <mxCell id="7_2PxLmDTk1nebNTgZE4-61" value="Activer le joueur virtuel" style="ellipse;whiteSpace=wrap;html=1;" parent="1" vertex="1">
          <mxGeometry x="620" y="190" width="120" height="80" as="geometry" />
        </mxCell>
        <mxCell id="7_2PxLmDTk1nebNTgZE4-62" value="Choisir une variante du tapis de jeu" style="ellipse;whiteSpace=wrap;html=1;" parent="1" vertex="1">
          <mxGeometry x="350" y="110" width="120" height="80" as="geometry" />
        </mxCell>
        <mxCell id="7_2PxLmDTk1nebNTgZE4-63" value="Finir la partie" style="ellipse;whiteSpace=wrap;html=1;" parent="1" vertex="1">
          <mxGeometry x="210" y="840" width="120" height="80" as="geometry" />
        </mxCell>
        <mxCell id="7_2PxLmDTk1nebNTgZE4-66" value="Placer la carte cachÃ©e" style="ellipse;whiteSpace=wrap;html=1;" parent="1" vertex="1">
          <mxGeometry x="530" y="410" width="120" height="80" as="geometry" />
        </mxCell>
        <mxCell id="7_2PxLmDTk1nebNTgZE4-67" value="Choisir le premier joueur" style="ellipse;whiteSpace=wrap;html=1;" parent="1" vertex="1">
          <mxGeometry x="650" y="500" width="120" height="80" as="geometry" />
        </mxCell>
        <mxCell id="7_2PxLmDTk1nebNTgZE4-69" value="Piocher et placer&amp;nbsp; une carte" style="ellipse;whiteSpace=wrap;html=1;" parent="1" vertex="1">
          <mxGeometry x="425" y="550" width="135" height="80" as="geometry" />
        </mxCell>
        <mxCell id="7_2PxLmDTk1nebNTgZE4-71" value="Deplacer une carte" style="ellipse;whiteSpace=wrap;html=1;" parent="1" vertex="1">
          <mxGeometry x="600" y="620" width="120" height="80" as="geometry" />
        </mxCell>
        <mxCell id="7_2PxLmDTk1nebNTgZE4-72" value="Voire les cartes victoires" style="ellipse;whiteSpace=wrap;html=1;" parent="1" vertex="1">
          <mxGeometry x="460" y="770" width="120" height="80" as="geometry" />
        </mxCell>
        <mxCell id="7_2PxLmDTk1nebNTgZE4-73" value="Lire les scores" style="ellipse;whiteSpace=wrap;html=1;" parent="1" vertex="1">
          <mxGeometry x="440" y="910" width="120" height="80" as="geometry" />
        </mxCell>
        <mxCell id="7_2PxLmDTk1nebNTgZE4-75" value="" style="endArrow=none;html=1;exitX=0.961;exitY=0.325;exitDx=0;exitDy=0;entryX=0;entryY=0.5;entryDx=0;entryDy=0;exitPerimeter=0;" parent="1" source="7_2PxLmDTk1nebNTgZE4-58" target="7_2PxLmDTk1nebNTgZE4-66" edge="1">
          <mxGeometry width="50" height="50" relative="1" as="geometry">
            <mxPoint x="450" y="430" as="sourcePoint" />
            <mxPoint x="500" y="380" as="targetPoint" />
          </mxGeometry>
        </mxCell>
        <mxCell id="7_2PxLmDTk1nebNTgZE4-76" value="" style="endArrow=none;html=1;entryX=0;entryY=0.5;entryDx=0;entryDy=0;exitX=0.678;exitY=0;exitDx=0;exitDy=0;exitPerimeter=0;" parent="1" source="7_2PxLmDTk1nebNTgZE4-57" target="7_2PxLmDTk1nebNTgZE4-62" edge="1">
          <mxGeometry width="50" height="50" relative="1" as="geometry">
            <mxPoint x="450" y="260" as="sourcePoint" />
            <mxPoint x="500" y="210" as="targetPoint" />
          </mxGeometry>
        </mxCell>
        <mxCell id="7_2PxLmDTk1nebNTgZE4-77" value="" style="endArrow=none;html=1;exitX=0.933;exitY=0.233;exitDx=0;exitDy=0;entryX=0;entryY=0.5;entryDx=0;entryDy=0;exitPerimeter=0;" parent="1" source="7_2PxLmDTk1nebNTgZE4-57" target="7_2PxLmDTk1nebNTgZE4-60" edge="1">
          <mxGeometry width="50" height="50" relative="1" as="geometry">
            <mxPoint x="450" y="260" as="sourcePoint" />
            <mxPoint x="500" y="210" as="targetPoint" />
          </mxGeometry>
        </mxCell>
        <mxCell id="7_2PxLmDTk1nebNTgZE4-79" value="" style="endArrow=none;html=1;entryX=0;entryY=0.5;entryDx=0;entryDy=0;" parent="1" source="7_2PxLmDTk1nebNTgZE4-57" target="7_2PxLmDTk1nebNTgZE4-61" edge="1">
          <mxGeometry width="50" height="50" relative="1" as="geometry">
            <mxPoint x="450" y="260" as="sourcePoint" />
            <mxPoint x="500" y="210" as="targetPoint" />
          </mxGeometry>
        </mxCell>
        <mxCell id="7_2PxLmDTk1nebNTgZE4-80" value="" style="endArrow=none;html=1;exitX=1;exitY=0.5;exitDx=0;exitDy=0;entryX=0;entryY=0.5;entryDx=0;entryDy=0;" parent="1" source="7_2PxLmDTk1nebNTgZE4-58" target="7_2PxLmDTk1nebNTgZE4-67" edge="1">
          <mxGeometry width="50" height="50" relative="1" as="geometry">
            <mxPoint x="450" y="530" as="sourcePoint" />
            <mxPoint x="500" y="480" as="targetPoint" />
          </mxGeometry>
        </mxCell>
        <mxCell id="7_2PxLmDTk1nebNTgZE4-82" value="" style="endArrow=none;html=1;exitX=0.983;exitY=0.333;exitDx=0;exitDy=0;exitPerimeter=0;entryX=0;entryY=0.5;entryDx=0;entryDy=0;" parent="1" source="7_2PxLmDTk1nebNTgZE4-59" target="7_2PxLmDTk1nebNTgZE4-69" edge="1">
          <mxGeometry width="50" height="50" relative="1" as="geometry">
            <mxPoint x="450" y="830" as="sourcePoint" />
            <mxPoint x="500" y="780" as="targetPoint" />
          </mxGeometry>
        </mxCell>
        <mxCell id="7_2PxLmDTk1nebNTgZE4-84" value="" style="endArrow=none;html=1;entryX=-0.017;entryY=0.417;entryDx=0;entryDy=0;entryPerimeter=0;" parent="1" source="7_2PxLmDTk1nebNTgZE4-59" target="7_2PxLmDTk1nebNTgZE4-71" edge="1">
          <mxGeometry width="50" height="50" relative="1" as="geometry">
            <mxPoint x="361" y="810" as="sourcePoint" />
            <mxPoint x="500" y="780" as="targetPoint" />
          </mxGeometry>
        </mxCell>
        <mxCell id="7_2PxLmDTk1nebNTgZE4-85" value="" style="endArrow=none;html=1;entryX=0.022;entryY=0.417;entryDx=0;entryDy=0;entryPerimeter=0;exitX=0.961;exitY=0.325;exitDx=0;exitDy=0;exitPerimeter=0;" parent="1" source="7_2PxLmDTk1nebNTgZE4-63" target="7_2PxLmDTk1nebNTgZE4-72" edge="1">
          <mxGeometry width="50" height="50" relative="1" as="geometry">
            <mxPoint x="350" y="960" as="sourcePoint" />
            <mxPoint x="400" y="910" as="targetPoint" />
          </mxGeometry>
        </mxCell>
        <mxCell id="7_2PxLmDTk1nebNTgZE4-86" value="" style="endArrow=none;html=1;exitX=1;exitY=0.5;exitDx=0;exitDy=0;" parent="1" source="7_2PxLmDTk1nebNTgZE4-63" target="7_2PxLmDTk1nebNTgZE4-73" edge="1">
          <mxGeometry width="50" height="50" relative="1" as="geometry">
            <mxPoint x="450" y="890" as="sourcePoint" />
            <mxPoint x="500" y="840" as="targetPoint" />
          </mxGeometry>
        </mxCell>
        <mxCell id="7_2PxLmDTk1nebNTgZE4-87" value="&lt;font size=&quot;1&quot;&gt;&lt;b style=&quot;font-size: 30px&quot;&gt;Shape Up !&lt;/b&gt;&lt;/font&gt;" style="text;html=1;strokeColor=none;fillColor=none;align=center;verticalAlign=middle;whiteSpace=wrap;rounded=0;" parent="1" vertex="1">
          <mxGeometry x="425" y="70" width="220" height="40" as="geometry" />
        </mxCell>
        <mxCell id="7_2PxLmDTk1nebNTgZE4-88" value="Piocher la carte victore pour chaque joueur" style="ellipse;whiteSpace=wrap;html=1;" parent="1" vertex="1">
          <mxGeometry x="370" y="350" width="120" height="80" as="geometry" />
        </mxCell>
        <mxCell id="7_2PxLmDTk1nebNTgZE4-89" value="" style="endArrow=none;html=1;entryX=0;entryY=0.5;entryDx=0;entryDy=0;" parent="1" source="7_2PxLmDTk1nebNTgZE4-58" target="7_2PxLmDTk1nebNTgZE4-88" edge="1">
          <mxGeometry width="50" height="50" relative="1" as="geometry">
            <mxPoint x="490" y="510" as="sourcePoint" />
            <mxPoint x="540" y="460" as="targetPoint" />
          </mxGeometry>
        </mxCell>
        <mxCell id="RvqsbtfU2QGyr6yqb92h-2" value="" style="endArrow=none;html=1;exitX=0.983;exitY=0.425;exitDx=0;exitDy=0;exitPerimeter=0;" parent="1" source="7_2PxLmDTk1nebNTgZE4-63" target="RvqsbtfU2QGyr6yqb92h-3" edge="1">
          <mxGeometry width="50" height="50" relative="1" as="geometry">
            <mxPoint x="390" y="870" as="sourcePoint" />
            <mxPoint x="410" y="840" as="targetPoint" />
          </mxGeometry>
        </mxCell>
        <mxCell id="RvqsbtfU2QGyr6yqb92h-3" value="Voire la carte cachÃ©e" style="ellipse;whiteSpace=wrap;html=1;" parent="1" vertex="1">
          <mxGeometry x="575" y="840" width="120" height="80" as="geometry" />
        </mxCell>
        <mxCell id="RvqsbtfU2QGyr6yqb92h-6" value="&lt;font style=&quot;font-size: 10px&quot;&gt;&amp;lt;extends&amp;gt;&lt;/font&gt;" style="endArrow=open;endSize=12;dashed=1;html=1;entryX=0.993;entryY=0.606;entryDx=0;entryDy=0;entryPerimeter=0;exitX=0.083;exitY=0.625;exitDx=0;exitDy=0;exitPerimeter=0;" parent="1" source="RvqsbtfU2QGyr6yqb92h-7" target="7_2PxLmDTk1nebNTgZE4-61" edge="1">
          <mxGeometry width="160" relative="1" as="geometry">
            <mxPoint x="640" y="380" as="sourcePoint" />
            <mxPoint x="800" y="380" as="targetPoint" />
          </mxGeometry>
        </mxCell>
        <mxCell id="RvqsbtfU2QGyr6yqb92h-7" value="Choisir le niveau du joueur virtuel" style="ellipse;whiteSpace=wrap;html=1;" parent="1" vertex="1">
          <mxGeometry x="790" y="180" width="120" height="80" as="geometry" />
        </mxCell>
        <mxCell id="RvqsbtfU2QGyr6yqb92h-9" value="Finir son tour" style="ellipse;whiteSpace=wrap;html=1;" parent="1" vertex="1">
          <mxGeometry x="400" y="670" width="120" height="80" as="geometry" />
        </mxCell>
        <mxCell id="RvqsbtfU2QGyr6yqb92h-11" value="" style="endArrow=none;html=1;exitX=1;exitY=1;exitDx=0;exitDy=0;" parent="1" source="7_2PxLmDTk1nebNTgZE4-59" target="RvqsbtfU2QGyr6yqb92h-9" edge="1">
          <mxGeometry width="50" height="50" relative="1" as="geometry">
            <mxPoint x="230" y="880" as="sourcePoint" />
            <mxPoint x="280" y="830" as="targetPoint" />
          </mxGeometry>
        </mxCell>
        <mxCell id="QsbC_CbRYwob9RMg6abL-1" value="Activer le jeu sur la console" style="ellipse;whiteSpace=wrap;html=1;" vertex="1" parent="1">
          <mxGeometry x="490" y="260" width="120" height="80" as="geometry" />
        </mxCell>
        <mxCell id="QsbC_CbRYwob9RMg6abL-3" value="" style="endArrow=none;html=1;exitX=0.992;exitY=0.638;exitDx=0;exitDy=0;exitPerimeter=0;entryX=0;entryY=0.5;entryDx=0;entryDy=0;" edge="1" parent="1" source="7_2PxLmDTk1nebNTgZE4-57" target="QsbC_CbRYwob9RMg6abL-1">
          <mxGeometry width="50" height="50" relative="1" as="geometry">
            <mxPoint x="440" y="460" as="sourcePoint" />
            <mxPoint x="490" y="410" as="targetPoint" />
          </mxGeometry>
        </mxCell>
      </root>
    </mxGraphModel>
  </diagram>
</mxfile>
